<svg width="599" height="459" viewBox="0 0 599 459" fill="none" 
  xmlns="http://www.w3.org/2000/svg">
  <g clip-path="url(#clip0)">
    <path d="M511.608 369.584C448.614 399.761 377.46 422.639 322.147 432.524C265.398 442.062 223.914 434.135 183.662 400.295C144.196 366.81 107.783 317.559 75.0726 272.991C43.2597 227.325 15.8237 188.149 16.7216 146.141C17.2461 105.469 47.3903 60.7416 113.875 28.8345C178.805 -2.57245 283.652 -16.2332 390.442 30.8445C496.947 75.9885 571.618 165.998 589.094 230.451C608.687 297.665 573.689 339.296 511.608 369.584Z" fill="url(#paint0_linear)"/>
    <path d="M52.8587 346.767C29.9423 269.068 55.1988 188.602 111.202 137.375" stroke="url(#paint1_linear)" stroke-width="5" stroke-linecap="round" stroke-linejoin="round" stroke-dasharray="10 15"/>
    <path d="M553.266 351.641C573.35 273.162 545.193 193.665 487.369 144.502" stroke="url(#paint2_linear)" stroke-width="5" stroke-linecap="round" stroke-linejoin="round" stroke-dasharray="10 15"/>
    <g filter="url(#filter0_di)">
      <rect x="132" y="53" width="348" height="286" rx="30" fill="url(#paint3_linear)"/>
    </g>
    <g filter="url(#filter1_d)">
      <rect x="168" y="100" width="95" height="65" rx="10" fill="url(#paint4_linear)"/>
    </g>
    <path d="M225.226 137.154H206.052C205.565 137.154 205.217 136.776 205.217 136.329V115.517C205.217 115.311 205.287 115.139 205.391 115.002L214.821 109.095C215.169 108.683 215.796 108.683 216.144 109.095L225.852 114.968C225.991 115.105 226.026 115.311 226.026 115.483V136.295C226.061 136.81 225.678 137.154 225.226 137.154Z" fill="#DDB797"/>
    <path d="M203.895 116.616L214.717 109.061C215.1 108.58 215.831 108.58 216.248 109.061L227.349 116.616" stroke="#7F605E" stroke-width="4.8" stroke-miterlimit="10" stroke-linecap="round"/>
    <path d="M240.885 141.206L215.796 126.37C215.622 126.267 215.378 126.267 215.204 126.37L190.08 141.206C189.906 141.309 189.802 141.481 189.802 141.687V157.45C189.802 157.76 190.046 158 190.359 158H240.572C240.885 158 241.128 157.76 241.128 157.45V141.687C241.163 141.481 241.059 141.309 240.885 141.206Z" fill="#DDB797"/>
    <path d="M215.483 127.091L189.802 142.271V145.121L215.483 129.941L241.163 145.121V142.271L215.483 127.091Z" fill="#CE9772"/>
    <path d="M244.295 142.099L215.83 125.271C215.622 125.133 215.378 125.133 215.169 125.271L186.705 142.099" stroke="#7F605E" stroke-width="4.8" stroke-miterlimit="10" stroke-linecap="round"/>
    <path d="M227.453 144.675L216.039 138.046C215.865 137.943 215.656 137.943 215.482 138.046L203.582 144.709C203.408 144.812 203.303 144.984 203.303 145.19V157.451C203.303 157.76 203.547 158 203.86 158H227.174C227.488 158 227.731 157.76 227.731 157.451V145.156C227.731 144.984 227.627 144.778 227.453 144.675Z" fill="#EDD0B4"/>
    <path d="M215.483 152.059C214.23 152.059 213.221 153.055 213.221 154.291V158H217.779V154.291C217.779 153.055 216.77 152.059 215.483 152.059Z" fill="#7F605E"/>
    <path d="M215.796 138.665L203.269 145.636V147.869L215.796 140.897L227.731 147.834V145.602L215.796 138.665Z" fill="#C4A183"/>
    <path d="M215.865 149.208H215.134C214.856 149.208 214.647 149.002 214.647 148.727V143.816C214.647 143.541 214.856 143.335 215.134 143.335H215.865C216.144 143.335 216.352 143.541 216.352 143.816V148.727C216.318 149.002 216.109 149.208 215.865 149.208Z" fill="white"/>
    <path d="M217.953 145.396V146.117C217.953 146.392 217.744 146.598 217.466 146.598H213.534C213.255 146.598 213.047 146.392 213.047 146.117V145.396C213.047 145.121 213.255 144.915 213.534 144.915H217.466C217.744 144.95 217.953 145.156 217.953 145.396Z" fill="white"/>
    <path d="M230.097 145.396L216.144 137.257C215.935 137.119 215.656 137.119 215.448 137.257L200.902 145.396" stroke="#7F605E" stroke-width="4.8" stroke-miterlimit="10" stroke-linecap="round"/>
    <path d="M232.672 153.158H231.35C231.002 153.158 230.724 152.883 230.724 152.539V152.127C230.724 151.784 231.002 151.509 231.35 151.509H232.672C233.02 151.509 233.299 151.784 233.299 152.127V152.539C233.299 152.883 233.02 153.158 232.672 153.158Z" fill="#C99B79"/>
    <path d="M194.569 155.012H193.247C192.899 155.012 192.62 154.737 192.62 154.394V153.982C192.62 153.638 192.899 153.364 193.247 153.364H194.569C194.917 153.364 195.195 153.638 195.195 153.982V154.394C195.23 154.737 194.952 155.012 194.569 155.012Z" fill="#C99B79"/>
    <path d="M236.709 155.012H235.387C235.039 155.012 234.76 154.737 234.76 154.394V153.982C234.76 153.638 235.039 153.364 235.387 153.364H236.709C237.057 153.364 237.335 153.638 237.335 153.982V154.394C237.335 154.737 237.057 155.012 236.709 155.012Z" fill="#F2C8AD"/>
    <path d="M197.214 152.299H195.891C195.544 152.299 195.265 152.024 195.265 151.681V151.269C195.265 150.925 195.544 150.651 195.891 150.651H197.214C197.562 150.651 197.84 150.925 197.84 151.269V151.681C197.84 152.024 197.562 152.299 197.214 152.299Z" fill="#F2C8AD"/>
    <path d="M217.918 114.899H213.047C212.559 114.899 212.211 115.277 212.211 115.723V120.531C212.211 121.012 212.594 121.356 213.047 121.356H217.918C218.405 121.356 218.753 120.978 218.753 120.531V115.723C218.788 115.277 218.405 114.899 217.918 114.899Z" fill="#489BFF"/>
    <path d="M217.083 118.917H217.014V117.784C217.014 116.96 216.318 116.273 215.483 116.273C214.647 116.273 213.951 116.96 213.951 117.784V118.917H213.882C213.569 118.917 213.325 119.158 213.325 119.467C213.325 119.776 213.569 120.016 213.882 120.016H217.048C217.362 120.016 217.605 119.776 217.605 119.467C217.64 119.158 217.396 118.917 217.083 118.917Z" fill="#F9CC3D"/>
    <rect x="168" y="186" width="279" height="29" rx="8" fill="white"/>
    <g filter="url(#filter2_i)">
      <rect x="416.414" y="196.904" width="16.2337" height="7.14473" rx="3.57236" fill="#DEE3EA"/>
    </g>
    <rect x="178" y="197" width="48" height="7" rx="3.5" fill="#F2F5F7"/>
    <rect x="343" y="142" width="167" height="29" rx="8" fill="white"/>
    <g filter="url(#filter3_i)">
      <rect x="479" y="152.904" width="16.2337" height="7.14473" rx="3.57236" fill="#DEE3EA"/>
    </g>
    <rect x="353" y="153" width="48" height="7" rx="3.5" fill="#F2F5F7"/>
    <rect x="279" y="100" width="167" height="29" rx="8" fill="white"/>
    <g filter="url(#filter4_i)">
      <rect x="415" y="110.904" width="16.2337" height="7.14473" rx="3.57236" fill="#DEE3EA"/>
    </g>
    <rect x="289" y="111" width="48" height="7" rx="3.5" fill="#F2F5F7"/>
    <rect x="168" y="222" width="279" height="29" rx="8" fill="white"/>
    <g filter="url(#filter5_i)">
      <rect x="416.414" y="232.904" width="16.2337" height="7.14473" rx="3.57236" fill="#DEE3EA"/>
    </g>
    <rect x="178" y="233" width="48" height="7" rx="3.5" fill="#F2F5F7"/>
    <rect x="168" y="263" width="279" height="47" rx="8" fill="white"/>
    <rect x="178" y="277" width="48" height="7" rx="3.5" fill="#F2F5F7"/>
    <rect x="178" y="290" width="89" height="7" rx="3.5" fill="#F2F5F7"/>
    <g filter="url(#filter6_i)">
      <rect x="309" y="277" width="33" height="18" rx="5" fill="#DBE2EC"/>
    </g>
    <rect x="325" y="279" width="15" height="14" rx="4" fill="white"/>
    <g clip-path="url(#clip1)">
      <mask id="mask0" mask-type="alpha" maskUnits="userSpaceOnUse" x="114" y="133" width="584" height="423">
        <path d="M114.656 555.896H697.258V133.62H114.656V555.896Z" fill="white"/>
      </mask>
      <g mask="url(#mask0)">
        <path d="M519.767 455.89C484.749 459.957 449.251 459.957 414.232 455.89C407.277 455.172 402 449.191 402 442.252V258.748C402 251.57 407.277 245.828 414.232 245.11C449.251 241.043 484.749 241.043 519.767 245.11C526.723 245.828 532 251.57 532 258.748V442.492C532 449.191 526.723 455.172 519.767 455.89Z" fill="#181818"/>
      </g>
      <mask id="mask1" mask-type="alpha" maskUnits="userSpaceOnUse" x="114" y="133" width="584" height="423">
        <path d="M114.656 555.896H697.258V133.62H114.656V555.896Z" fill="white"/>
      </mask>
      <g mask="url(#mask1)">
        <path d="M413.513 424.069H520.487C521.446 424.069 522.406 423.112 522.406 422.155V278.605C522.406 277.648 521.446 276.691 520.487 276.691H413.513C412.553 276.691 411.594 277.648 411.594 278.605V422.155C411.594 423.352 412.553 424.069 413.513 424.069Z" fill="white"/>
      </g>
      <mask id="mask2" mask-type="alpha" maskUnits="userSpaceOnUse" x="114" y="133" width="584" height="423">
        <path d="M114.656 555.896H697.258V133.62H114.656V555.896Z" fill="white"/>
      </mask>
      <g mask="url(#mask2)">
        <path d="M471.796 260.422C471.796 257.791 469.638 255.637 466.999 255.637C464.361 255.637 462.202 257.791 462.202 260.422C462.202 263.054 464.361 265.207 466.999 265.207C469.638 265.207 471.796 263.054 471.796 260.422Z" fill="black"/>
        <path d="M522.406 299.659V278.845C522.406 277.888 521.446 276.931 520.487 276.931H413.513C412.553 276.931 411.594 277.888 411.594 278.845V299.659H522.406Z" fill="url(#paint5_linear)"/>
        <path d="M432.701 292.96H419.029C417.83 292.96 416.63 292.003 416.63 290.568C416.63 289.372 417.59 288.175 419.029 288.175H432.701C433.9 288.175 435.099 289.132 435.099 290.568C435.099 292.003 434.14 292.96 432.701 292.96Z" fill="white"/>
        <path d="M512.572 292.96H505.616C504.417 292.96 503.217 292.003 503.217 290.568C503.217 289.372 504.177 288.175 505.616 288.175H512.572C513.771 288.175 514.97 289.132 514.97 290.568C514.97 292.003 513.771 292.96 512.572 292.96Z" fill="white"/>
      </g>
      <path d="M498.18 356.362C498.18 381.244 491.944 387.464 467 387.464C442.055 387.464 435.819 381.244 435.819 356.362C435.819 331.48 442.055 325.259 467 325.259C491.944 325.259 498.18 331.48 498.18 356.362Z" fill="url(#paint6_linear)"/>
      <path d="M479.232 371.195C479.232 371.674 478.753 372.152 478.273 372.152H472.037C471.557 372.152 471.077 371.674 471.077 371.195C471.077 371.195 471.077 370.477 471.077 365.692C471.077 362.343 469.398 359.711 467 357.558C464.601 359.711 462.922 362.582 462.922 365.692C462.922 370.477 462.922 371.195 462.922 371.195C462.922 371.674 462.443 372.152 461.963 372.152H455.727C455.247 372.152 454.767 371.674 454.767 371.195C454.767 371.195 454.048 351.098 454.767 350.38L466.04 340.81C466.76 340.332 467.479 340.332 468.199 340.81L479.472 350.38C479.952 351.098 479.232 371.195 479.232 371.195Z" fill="white"/>
    </g>
    <g clip-path="url(#clip2)">
      <path d="M342.275 437.013H76.2372V281.142C76.2372 269.927 85.1432 261 96.3327 261H322.179C333.369 261 342.275 269.927 342.275 281.142V437.013Z" fill="#181818"/>
      <path d="M317.155 411.836H101.356C99.9863 411.836 98.8445 410.692 98.8445 409.318V288.695C98.8445 287.322 99.9863 286.177 101.356 286.177H317.155C318.525 286.177 319.667 287.322 319.667 288.695V409.318C319.667 410.692 318.525 411.836 317.155 411.836Z" fill="white"/>
      <path d="M357.346 424.425H249.333C246.592 424.425 244.309 426.714 244.309 429.46C244.309 432.207 242.025 434.496 239.285 434.496H179.227C176.486 434.496 174.203 432.207 174.203 429.46C174.203 426.714 171.919 424.425 169.179 424.425H58.6535C56.5983 424.425 54.9998 426.027 54.9998 428.087V437.929C54.9998 443.422 59.5669 448 65.0475 448H350.952C356.433 448 361 443.422 361 437.929V428.087C361 426.027 359.401 424.425 357.346 424.425Z" fill="url(#paint7_linear)"/>
      <path d="M208.228 277.48C210.246 277.48 211.882 275.84 211.882 273.818C211.882 271.795 210.246 270.155 208.228 270.155C206.21 270.155 204.574 271.795 204.574 273.818C204.574 275.84 206.21 277.48 208.228 277.48Z" fill="black"/>
      <path d="M319.667 308.608H98.8445V288.695C98.8445 287.322 99.9863 286.177 101.356 286.177H317.155C318.525 286.177 319.667 287.322 319.667 288.695V308.608V308.608Z" fill="url(#paint8_linear)"/>
      <path d="M245.907 365.83H170.321C163.47 365.83 157.989 360.337 157.989 353.47V329.437C157.989 322.57 163.47 317.077 170.321 317.077H245.907C252.758 317.077 258.239 322.57 258.239 329.437V353.47C258.239 360.337 252.758 365.83 245.907 365.83Z" fill="#6ECFFF"/>
      <path d="M219.646 332.87H195.897C195.212 332.87 194.755 332.412 194.755 331.726V305.633C194.755 305.404 194.755 305.175 194.983 304.946L206.63 297.622C207.086 297.164 207.772 297.164 208.228 297.622L220.331 304.946C220.56 305.175 220.56 305.404 220.56 305.633V331.726C220.788 332.412 220.331 332.87 219.646 332.87Z" fill="#DDB797"/>
      <path fill-rule="evenodd" clip-rule="evenodd" d="M207.778 300.33L195.084 309.387C193.769 310.325 191.942 310.02 191.004 308.705C190.066 307.39 190.371 305.563 191.686 304.625L204.844 295.236C206.426 293.529 209.102 293.525 210.688 295.225L224.066 304.612C225.389 305.539 225.709 307.364 224.781 308.686C223.853 310.008 222.029 310.328 220.706 309.401L207.778 300.33Z" fill="#7F605E"/>
      <path d="M239.057 337.906L208 319.137C207.772 318.908 207.543 318.908 207.315 319.137L176.258 337.906C176.03 338.135 176.03 338.364 176.03 338.592V358.505C176.03 358.963 176.258 359.192 176.715 359.192H238.828C239.285 359.192 239.513 358.963 239.513 358.505V338.592C239.513 338.135 239.285 337.906 239.057 337.906Z" fill="#DDB797"/>
      <path d="M207.772 320.053L175.801 339.279V342.712L207.772 323.715L239.513 342.712V339.279L207.772 320.053Z" fill="#CE9772"/>
      <path fill-rule="evenodd" clip-rule="evenodd" d="M209.699 315.373L244.903 336.543C246.287 337.376 246.735 339.173 245.902 340.558C245.07 341.942 243.272 342.389 241.888 341.557L207.541 320.901L173.422 341.331C172.036 342.161 170.24 341.71 169.41 340.324C168.58 338.938 169.031 337.142 170.417 336.312L205.678 315.198L205.776 315.149C206.085 314.994 206.77 314.667 207.629 314.667C208.5 314.667 209.193 314.986 209.699 315.373Z" fill="#7F605E"/>
      <path d="M222.386 342.255L208.228 334.015C208 333.786 207.771 333.786 207.543 334.015L192.7 342.483C192.471 342.712 192.243 342.941 192.243 343.17V358.505C192.243 358.963 192.471 359.192 192.928 359.192H221.701C222.158 359.192 222.386 358.963 222.386 358.505V343.17C222.843 342.483 222.615 342.255 222.386 342.255Z" fill="#EDD0B4"/>
      <path d="M207.772 351.41C206.173 351.41 205.031 352.783 205.031 354.157V358.734H210.74V354.157C210.512 352.783 209.142 351.41 207.772 351.41Z" fill="#7F605E"/>
      <path d="M208 334.701L192.472 343.399V346.146L208 337.448L222.843 346.146V343.399L208 334.701Z" fill="#C4A183"/>
      <path d="M208.228 347.977H207.315C207.086 347.977 206.63 347.748 206.63 347.29V341.11C206.63 340.881 206.858 340.423 207.315 340.423H208.228C208.457 340.423 208.913 340.652 208.913 341.11V347.29C208.685 347.748 208.457 347.977 208.228 347.977Z" fill="white"/>
      <path d="M210.74 343.17V344.086C210.74 344.315 210.512 344.772 210.055 344.772H205.26C205.031 344.772 204.575 344.543 204.575 344.086V343.17C204.575 342.941 204.803 342.483 205.26 342.483H210.055C210.512 342.483 210.74 342.712 210.74 343.17Z" fill="white"/>
      <path fill-rule="evenodd" clip-rule="evenodd" d="M210.129 330.462L227.305 340.655C228.694 341.479 229.152 343.274 228.327 344.663C227.503 346.052 225.708 346.51 224.319 345.685L207.98 335.989L190.953 345.71C189.55 346.511 187.764 346.023 186.963 344.62C186.162 343.217 186.65 341.431 188.053 340.63L205.899 330.441C206.596 329.939 207.377 329.774 208 329.774C208.631 329.774 209.426 329.944 210.129 330.462Z" fill="#7F605E"/>
      <path d="M229.009 352.783H227.41C226.954 352.783 226.725 352.326 226.725 352.097V351.639C226.725 351.181 227.182 350.952 227.41 350.952H229.009C229.466 350.952 229.694 351.41 229.694 351.639V352.097C229.694 352.554 229.466 352.783 229.009 352.783Z" fill="#C99B79"/>
      <path d="M181.739 355.301H180.14C179.684 355.301 179.455 354.843 179.455 354.614V354.157C179.455 353.699 179.912 353.47 180.14 353.47H181.739C182.195 353.47 182.424 353.928 182.424 354.157V354.614C182.652 354.843 182.195 355.301 181.739 355.301Z" fill="#C99B79"/>
      <path d="M233.805 355.301H232.206C231.749 355.301 231.521 354.843 231.521 354.614V354.157C231.521 353.699 231.978 353.47 232.206 353.47H233.805C234.261 353.47 234.49 353.928 234.49 354.157V354.614C234.718 354.843 234.261 355.301 233.805 355.301Z" fill="#F2C8AD"/>
      <path d="M184.936 351.868H183.337C182.88 351.868 182.652 351.41 182.652 351.181V350.723C182.652 350.266 183.109 350.037 183.337 350.037H184.936C185.392 350.037 185.621 350.494 185.621 350.723V351.181C185.849 351.41 185.392 351.868 184.936 351.868Z" fill="#F2C8AD"/>
      <path d="M210.74 304.717H204.803C204.118 304.717 203.661 305.175 203.661 305.862V311.813C203.661 312.499 204.118 312.957 204.803 312.957H210.74C211.425 312.957 211.882 312.499 211.882 311.813V305.862C211.654 305.175 211.197 304.717 210.74 304.717Z" fill="#31BFF7"/>
      <path d="M209.599 309.753V308.379C209.599 307.235 208.685 306.548 207.772 306.548C206.63 306.548 205.945 307.464 205.945 308.379V309.753C205.488 309.753 205.26 309.982 205.26 310.439C205.26 310.897 205.488 311.126 205.945 311.126H209.827C210.284 311.126 210.512 310.897 210.512 310.439C210.284 310.211 210.055 309.753 209.599 309.753Z" fill="#F7B03E"/>
      <path d="M228.78 382.996H161.415C159.36 382.996 157.989 381.394 157.989 379.563V379.105C157.989 377.045 159.588 375.672 161.415 375.672H228.78C230.836 375.672 232.206 377.274 232.206 379.105V379.563C232.206 381.394 230.607 382.996 228.78 382.996Z" fill="#E6E6E6"/>
      <path d="M253.9 382.996H243.395C241.34 382.996 239.97 381.394 239.97 379.563V379.105C239.97 377.045 241.568 375.672 243.395 375.672H253.9C255.955 375.672 257.325 377.274 257.325 379.105V379.563C257.553 381.394 255.955 382.996 253.9 382.996Z" fill="#E6E6E6"/>
      <path d="M228.78 400.163H161.415C159.36 400.163 157.989 398.561 157.989 396.729V396.272C157.989 394.212 159.588 392.838 161.415 392.838H228.78C230.836 392.838 232.206 394.441 232.206 396.272V396.729C232.206 398.561 230.607 400.163 228.78 400.163Z" fill="#E6E6E6"/>
      <path d="M253.9 400.163H243.395C241.34 400.163 239.97 398.561 239.97 396.729V396.272C239.97 394.212 241.568 392.838 243.395 392.838H253.9C255.955 392.838 257.325 394.441 257.325 396.272V396.729C257.553 398.561 255.955 400.163 253.9 400.163Z" fill="#E6E6E6"/>
    </g>
    <mask id="path-78-inside-1" fill="white">
      <rect x="333" y="133" width="186" height="49" rx="2"/>
    </mask>
    <rect x="333" y="133" width="186" height="49" rx="2" stroke="#4BCFFC" stroke-width="8" mask="url(#path-78-inside-1)"/>
    <rect x="334" y="172" width="9" height="9" fill="#4BCFFC"/>
    <g clip-path="url(#clip3)">
      <path d="M513.809 179.052C513.809 178.716 513.857 178.573 513.857 178.381C513.857 174.881 513.857 171.382 513.857 167.835C513.857 167.356 513.905 166.828 514 166.349C514.286 165.055 515.571 164.048 517 163.952C518.333 163.856 519.619 164.671 520.095 165.917C520.238 166.301 520.333 166.732 520.333 167.116C520.381 168.41 520.333 169.704 520.333 170.999C520.333 171.19 520.333 171.382 520.381 171.574C520.762 171.526 521.048 171.43 521.333 171.43C522.476 171.334 523.428 171.718 524.143 172.581C524.333 172.772 524.428 172.964 524.809 172.82C526.857 171.862 529 173.3 529.286 175.025C529.286 175.169 529.381 175.265 529.381 175.217C530.286 175.265 531.095 175.217 531.857 175.409C533.143 175.744 534 177.039 534 178.381C534 182.168 534 185.955 534 189.742C534 190.077 533.857 190.413 533.667 190.7C532.952 191.755 532.238 192.762 531.524 193.768C531.333 194.056 531.238 194.391 531.238 194.727C531.19 195.973 531.238 197.22 531.238 198.514C531.238 199.425 530.857 199.808 529.952 199.856C528.952 199.856 528 199.856 527 199.856C523.857 199.856 520.667 199.856 517.524 199.856C516.238 199.856 515.905 199.521 515.905 198.226C515.905 197.028 515.905 195.83 515.905 194.631C515.905 194.296 515.762 193.96 515.619 193.672C513.476 190.605 511.428 187.345 509.381 184.133C509.095 183.702 508.809 183.222 508.524 182.791C507.667 181.401 507.905 179.675 509.095 178.668C510.381 177.566 512.048 177.614 513.333 178.716C513.428 178.812 513.571 178.908 513.809 179.052ZM515.905 175.025C515.905 177.518 515.905 179.963 515.905 182.455C515.905 183.222 515.667 183.606 515.19 183.75C514.571 183.893 514.19 183.606 513.905 183.079C513.333 182.216 512.762 181.353 512.19 180.49C511.809 179.915 511.143 179.723 510.619 180.059C510.048 180.394 509.905 181.017 510.19 181.64C510.286 181.88 510.381 182.024 510.476 182.216C512.762 185.763 515 189.262 517.286 192.81C517.714 193.433 517.905 194.056 517.857 194.823C517.809 195.638 517.857 196.453 517.857 197.268C517.809 197.795 518.048 197.891 518.524 197.891C521.857 197.891 525.19 197.891 528.524 197.891C529.048 197.891 529.238 197.795 529.19 197.22C529.143 196.213 529.143 195.206 529.19 194.2C529.19 193.864 529.333 193.433 529.524 193.145C530.19 192.091 530.952 191.084 531.667 190.029C531.857 189.742 531.952 189.406 531.952 189.071C531.952 185.763 531.952 182.455 531.952 179.1C531.952 178.812 531.905 178.525 531.857 178.237C531.667 177.518 531.143 177.182 530.428 177.278C529.809 177.374 529.381 177.854 529.381 178.573C529.381 179.34 529.381 180.154 529.381 180.921C529.381 181.64 528.905 182.12 528.333 182.072C527.762 182.024 527.381 181.593 527.381 180.874C527.381 179.34 527.381 177.806 527.381 176.32C527.381 176.128 527.381 175.936 527.381 175.744C527.286 175.073 526.809 174.594 526.19 174.594C525.524 174.594 525.095 174.977 524.952 175.696C524.905 175.888 524.905 176.128 524.905 176.32C524.905 177.326 524.905 178.381 524.905 179.387C524.905 180.059 524.476 180.538 523.905 180.538C523.333 180.538 522.952 180.059 522.905 179.387C522.905 178.093 522.905 176.751 522.905 175.457C522.905 175.169 522.905 174.834 522.857 174.546C522.762 173.827 522.286 173.491 521.619 173.491C520.952 173.539 520.524 173.923 520.476 174.594C520.476 174.786 520.476 174.929 520.476 175.121C520.476 176.463 520.476 177.806 520.476 179.148C520.476 179.435 520.476 179.771 520.333 180.059C520.143 180.49 519.714 180.682 519.238 180.586C518.714 180.442 518.476 180.107 518.476 179.435C518.476 175.505 518.476 171.622 518.476 167.691C518.476 167.499 518.476 167.308 518.476 167.116C518.381 166.541 517.952 166.109 517.428 166.013C516.905 165.917 516.333 166.205 516.143 166.684C516.048 166.972 516 167.308 516 167.643C515.905 170.136 515.905 172.581 515.905 175.025Z" fill="black"/>
      <path d="M515.905 175.025C515.905 172.581 515.905 170.088 515.905 167.643C515.905 167.308 515.952 166.972 516.047 166.684C516.238 166.205 516.809 165.965 517.333 166.013C517.857 166.109 518.285 166.541 518.381 167.116C518.428 167.308 518.381 167.499 518.381 167.691C518.381 171.622 518.381 175.505 518.381 179.435C518.381 180.107 518.619 180.49 519.143 180.586C519.619 180.682 520 180.49 520.238 180.059C520.381 179.819 520.381 179.483 520.381 179.196C520.381 177.854 520.381 176.511 520.381 175.169C520.381 174.977 520.381 174.834 520.381 174.642C520.476 173.971 520.905 173.539 521.524 173.539C522.19 173.491 522.666 173.875 522.762 174.594C522.809 174.881 522.809 175.217 522.809 175.505C522.809 176.799 522.809 178.141 522.809 179.435C522.809 180.154 523.19 180.586 523.809 180.586C524.381 180.586 524.809 180.107 524.809 179.435C524.809 178.429 524.809 177.374 524.809 176.368C524.809 176.176 524.809 175.936 524.857 175.744C524.952 175.025 525.428 174.642 526.095 174.642C526.714 174.642 527.19 175.121 527.285 175.792C527.333 175.984 527.285 176.176 527.285 176.368C527.285 177.901 527.285 179.435 527.285 180.921C527.285 181.64 527.666 182.072 528.238 182.12C528.857 182.168 529.285 181.688 529.285 180.969C529.285 180.202 529.285 179.387 529.285 178.621C529.285 177.949 529.714 177.422 530.333 177.326C531.047 177.23 531.571 177.566 531.762 178.285C531.809 178.573 531.857 178.86 531.857 179.148C531.857 182.455 531.857 185.763 531.857 189.119C531.857 189.454 531.762 189.79 531.571 190.077C530.857 191.132 530.143 192.138 529.428 193.193C529.238 193.481 529.095 193.864 529.095 194.248C529.047 195.254 529.047 196.261 529.095 197.268C529.143 197.843 528.905 197.939 528.428 197.939C525.095 197.939 521.762 197.939 518.428 197.939C517.952 197.939 517.762 197.843 517.762 197.316C517.809 196.501 517.714 195.686 517.762 194.871C517.809 194.104 517.571 193.481 517.19 192.858C515.047 189.262 512.762 185.715 510.476 182.216C510.381 182.024 510.238 181.88 510.143 181.688C509.857 181.065 510 180.442 510.571 180.107C511.095 179.819 511.762 179.963 512.143 180.538C512.714 181.401 513.285 182.264 513.857 183.126C514.19 183.606 514.571 183.941 515.143 183.798C515.666 183.654 515.857 183.27 515.857 182.503C515.905 180.011 515.905 177.518 515.905 175.025Z" fill="white"/>
    </g>
    <path fill-rule="evenodd" clip-rule="evenodd" d="M168 78.5141C168 73.0463 169.368 71.6787 174.84 71.6787C180.312 71.6787 181.679 73.0457 181.679 78.5141C181.679 83.9826 180.311 85.3496 174.84 85.3496C169.368 85.3496 168 83.982 168 78.5141ZM172.892 81.2073C172.954 81.146 172.988 81.0628 172.988 80.976V76.0524C172.988 76.0093 172.98 75.9667 172.963 75.9269C172.947 75.8872 172.923 75.851 172.892 75.8206C172.862 75.7901 172.826 75.766 172.786 75.7495C172.747 75.733 172.704 75.7245 172.661 75.7245H172.005C171.962 75.7244 171.92 75.7329 171.88 75.7493C171.84 75.7657 171.804 75.7899 171.773 75.8203C171.743 75.8508 171.719 75.887 171.702 75.9268C171.686 75.9666 171.677 76.0093 171.677 76.0524V80.976C171.677 81.019 171.686 81.0616 171.702 81.1013C171.719 81.141 171.743 81.1772 171.773 81.2076C171.804 81.238 171.84 81.262 171.88 81.2784C171.92 81.2948 171.962 81.3032 172.005 81.3031H172.661C172.748 81.3031 172.831 81.2687 172.892 81.2073ZM177.906 81.2074C177.967 81.146 178.002 81.0628 178.002 80.976V80.3063C178.002 80.2193 177.967 80.1359 177.906 80.0744C177.844 80.013 177.761 79.9784 177.674 79.9784H174.35C174.263 79.9784 174.18 80.013 174.118 80.0744C174.057 80.1359 174.022 80.2193 174.022 80.3063V80.976C174.022 81.0628 174.057 81.146 174.118 81.2074C174.18 81.2687 174.263 81.3031 174.35 81.3031H177.674C177.761 81.3031 177.844 81.2687 177.906 81.2074ZM177.906 78.8215C177.967 78.76 178.002 78.6766 178.002 78.5897V76.0517C178.002 75.9647 177.967 75.8814 177.906 75.8199C177.844 75.7584 177.761 75.7239 177.674 75.7239H174.35C174.263 75.7239 174.18 75.7584 174.118 75.8199C174.057 75.8814 174.022 75.9647 174.022 76.0517V78.5897C174.022 78.6766 174.057 78.76 174.118 78.8215C174.18 78.883 174.263 78.9175 174.35 78.9175H177.674C177.761 78.9175 177.844 78.883 177.906 78.8215ZM203.366 75.1637C203.887 74.9608 204.44 74.8524 204.999 74.8435C205.462 74.8525 205.919 74.9536 206.342 75.1411C206.766 75.3286 207.148 75.5987 207.466 75.9355C207.784 76.2723 208.031 76.6691 208.194 77.1028C208.357 77.5364 208.432 77.9981 208.414 78.461C208.414 80.465 206.961 82.0958 205.176 82.0958C204.353 82.0791 203.565 81.7587 202.965 81.1962L202.848 81.5919C202.837 81.6839 202.793 81.7688 202.724 81.8314C202.656 81.894 202.568 81.9303 202.475 81.9338H202.121C202.018 81.9325 201.919 81.8909 201.846 81.8179C201.773 81.745 201.732 81.6464 201.73 81.5433V72.2421C201.733 72.1394 201.775 72.0417 201.848 71.9691C201.92 71.8965 202.018 71.8547 202.121 71.8522H202.962C203.064 71.8583 203.159 71.9013 203.231 71.9731C203.303 72.045 203.347 72.1406 203.353 72.2421V75.1681L203.366 75.1637ZM204.836 76.3763C204.318 76.3818 203.807 76.4989 203.338 76.7195V79.6282C203.504 79.9105 203.74 80.1451 204.023 80.3094C204.306 80.4736 204.627 80.5618 204.955 80.5656C205.478 80.5298 205.966 80.289 206.313 79.8954C206.66 79.5018 206.837 78.9873 206.807 78.4636C206.815 77.9276 206.614 77.4096 206.245 77.0198C205.877 76.63 205.372 76.3991 204.836 76.3763ZM190.171 74.846C189.398 74.84 188.649 75.1107 188.058 75.6092L187.917 75.2584C187.898 75.1793 187.852 75.1094 187.787 75.0609C187.721 75.0124 187.641 74.9885 187.56 74.9933H187.192C187.089 74.9971 186.992 75.0395 186.92 75.1119C186.847 75.1843 186.805 75.2815 186.801 75.3838V84.6997C186.802 84.8028 186.844 84.9014 186.917 84.9744C186.99 85.0473 187.089 85.0889 187.192 85.0902H188.018C188.072 85.0952 188.126 85.0887 188.178 85.0713C188.229 85.0538 188.276 85.0257 188.315 84.9888C188.355 84.9519 188.386 84.9071 188.407 84.8573C188.428 84.8075 188.439 84.7538 188.438 84.6997V81.6763C188.957 81.9436 189.53 82.0888 190.114 82.1009C191.02 82.026 191.865 81.6151 192.483 80.9489C193.102 80.2827 193.449 79.4093 193.456 78.5003C193.464 77.5913 193.131 76.7125 192.523 76.0363C191.916 75.3601 191.077 74.9356 190.173 74.846H190.171ZM188.406 77.279C188.566 77.004 188.796 76.7758 189.072 76.6173C189.348 76.4589 189.66 76.3757 189.979 76.3762C190.241 76.3826 190.499 76.4426 190.738 76.5526C190.976 76.6627 191.189 76.8203 191.364 77.0159C191.539 77.2115 191.672 77.4409 191.755 77.6898C191.838 77.9388 191.869 78.2021 191.846 78.4635C191.86 78.7286 191.821 78.9938 191.731 79.2437C191.641 79.4935 191.502 79.723 191.323 79.9186C191.144 80.1143 190.927 80.2723 190.686 80.3834C190.445 80.4944 190.184 80.5563 189.919 80.5655C189.38 80.5561 188.855 80.3933 188.406 80.0962L188.406 77.279ZM199.962 74.9933H199.209C198.982 74.9933 198.761 75.024 198.761 75.3839V79.5014C198.646 79.8146 198.438 80.0848 198.164 80.2757C197.891 80.4666 197.565 80.5689 197.232 80.5687C196.371 80.5687 195.97 80.0744 195.97 79.0122V75.3839C195.966 75.2814 195.924 75.1842 195.851 75.1117C195.778 75.0393 195.681 74.997 195.579 74.9933H194.752C194.65 74.9995 194.555 75.0427 194.483 75.1146C194.411 75.1866 194.368 75.2823 194.361 75.3839V78.9053C194.361 80.3914 194.658 82.0977 196.965 82.0977C197.362 82.1127 197.757 82.0426 198.125 81.8922C198.492 81.7418 198.823 81.5145 199.095 81.2257L199.236 81.6098C199.294 81.7699 199.384 81.9338 199.607 81.9338H199.961C200.066 81.9331 200.166 81.8921 200.242 81.8195C200.317 81.7468 200.362 81.6479 200.366 81.5432V75.3839C200.36 75.2802 200.314 75.1827 200.239 75.1106C200.165 75.0384 200.066 74.9966 199.962 74.9933ZM209.878 71.8574H210.537C210.663 71.8574 210.783 71.9074 210.872 71.9964C210.961 72.0853 211.011 72.206 211.011 72.3318V81.4614C211.011 81.5872 210.961 81.7079 210.872 81.7968C210.783 81.8858 210.663 81.9358 210.537 81.9358H209.879C209.754 81.9358 209.633 81.8863 209.544 81.798C209.456 81.7097 209.405 81.5898 209.404 81.4646V72.3312C209.404 72.2055 209.454 72.085 209.543 71.9962C209.632 71.9073 209.753 71.8574 209.878 71.8574ZM213.526 74.9939H212.867C212.742 74.9939 212.621 75.0439 212.532 75.1327C212.444 75.2216 212.394 75.3421 212.394 75.4677V81.4644C212.394 81.5903 212.444 81.711 212.533 81.7999C212.622 81.8889 212.742 81.9389 212.868 81.9389H213.526C213.652 81.9389 213.773 81.8889 213.862 81.7999C213.951 81.711 214.001 81.5903 214.001 81.4644V75.4684C214.001 75.3425 213.951 75.2219 213.862 75.1329C213.773 75.0439 213.652 74.9939 213.526 74.9939ZM213.197 71.8573C212.92 71.8641 212.657 71.9789 212.463 72.1772C212.27 72.3755 212.162 72.6415 212.162 72.9185C212.162 73.1956 212.27 73.4616 212.463 73.6599C212.657 73.8582 212.92 73.973 213.197 73.9798C213.339 73.9833 213.48 73.9584 213.611 73.9066C213.743 73.8548 213.863 73.7772 213.965 73.6783C214.066 73.5794 214.147 73.4613 214.202 73.3308C214.257 73.2003 214.285 73.0601 214.285 72.9185C214.285 72.7769 214.257 72.6368 214.202 72.5063C214.147 72.3758 214.066 72.2576 213.965 72.1587C213.863 72.0598 213.743 71.9822 213.611 71.9305C213.48 71.8787 213.339 71.8538 213.197 71.8573ZM216.527 76.7848C216.527 77.1651 216.922 77.4071 217.653 77.7272C219.005 78.297 219.892 78.7702 219.894 80.0443C219.894 81.0662 219.035 82.1009 217.393 82.1009C216.579 82.1012 215.784 81.8557 215.112 81.3966C215.039 81.3535 214.984 81.285 214.959 81.2043C214.933 81.1237 214.939 81.0364 214.973 80.9593L215.283 80.3254C215.302 80.2853 215.33 80.2496 215.365 80.221C215.399 80.1923 215.439 80.1712 215.482 80.159C215.539 80.1438 215.597 80.1404 215.655 80.149C215.713 80.1576 215.768 80.178 215.817 80.2089L215.842 80.2223C216.333 80.5328 216.901 80.6988 217.481 80.7012C217.986 80.7012 218.314 80.4669 218.314 80.1032C218.314 79.6986 217.852 79.4195 216.892 78.9834C215.914 78.5423 215.009 77.9692 215.009 76.77C215.009 75.8128 215.727 74.846 217.332 74.846C218.042 74.8287 218.744 75.0059 219.36 75.3583C219.454 75.4196 219.523 75.5123 219.554 75.6197C219.585 75.7272 219.577 75.8422 219.531 75.9441L219.294 76.416C219.271 76.4621 219.239 76.5031 219.199 76.5364C219.16 76.5698 219.114 76.5948 219.065 76.6101C219.015 76.6253 218.963 76.6305 218.912 76.6252C218.861 76.6199 218.811 76.6042 218.766 76.5792C218.317 76.3668 217.828 76.253 217.331 76.2457C216.776 76.2457 216.527 76.5165 216.527 76.7848ZM224.276 74.8435C223.587 74.8518 222.918 75.0771 222.364 75.4876V72.2446C222.358 72.1432 222.315 72.0475 222.243 71.9756C222.171 71.9038 222.075 71.8608 221.973 71.8547H221.147C221.044 71.8571 220.946 71.899 220.874 71.9716C220.801 72.0442 220.759 72.1419 220.756 72.2446V81.5457C220.758 81.6489 220.799 81.7475 220.872 81.8205C220.945 81.8934 221.044 81.935 221.147 81.9363H221.959C222.011 81.9392 222.064 81.9312 222.114 81.9128C222.163 81.8944 222.208 81.866 222.246 81.8294C222.284 81.7927 222.315 81.7486 222.335 81.6998C222.355 81.651 222.365 81.5986 222.364 81.5457V77.3149C222.544 77.0226 222.798 76.7822 223.099 76.6177C223.401 76.4531 223.74 76.3699 224.084 76.3763C224.916 76.3763 225.376 76.9865 225.376 78.0947V81.5457C225.377 81.6489 225.419 81.7475 225.492 81.8205C225.565 81.8934 225.663 81.935 225.766 81.9363H226.592C226.695 81.9325 226.792 81.8902 226.864 81.8178C226.937 81.7453 226.979 81.6482 226.983 81.5457V78.1242C226.983 75.9806 226.049 74.8435 224.276 74.8435ZM229.393 74.9939H228.735C228.609 74.9939 228.488 75.0439 228.4 75.1327C228.311 75.2216 228.261 75.3421 228.261 75.4677V81.4644C228.261 81.5903 228.311 81.711 228.4 81.7999C228.489 81.8889 228.609 81.9389 228.735 81.9389H229.393C229.519 81.9389 229.64 81.8889 229.729 81.7999C229.818 81.711 229.868 81.5903 229.868 81.4644V75.4684C229.868 75.3425 229.818 75.2219 229.729 75.1329C229.64 75.0439 229.519 74.9939 229.393 74.9939ZM229.064 71.8573C228.788 71.8641 228.524 71.9789 228.331 72.1772C228.137 72.3755 228.029 72.6415 228.029 72.9185C228.029 73.1956 228.137 73.4616 228.331 73.6599C228.524 73.8582 228.788 73.973 229.064 73.9798C229.206 73.9833 229.347 73.9584 229.479 73.9066C229.61 73.8548 229.731 73.7772 229.832 73.6783C229.933 73.5794 230.014 73.4613 230.069 73.3308C230.124 73.2003 230.152 73.0601 230.152 72.9185C230.152 72.7769 230.124 72.6368 230.069 72.5063C230.014 72.3758 229.933 72.2576 229.832 72.1587C229.731 72.0598 229.61 71.9822 229.479 71.9305C229.347 71.8787 229.206 71.8538 229.064 71.8573ZM232.484 75.731C233.092 75.1497 233.904 74.8317 234.745 74.8462C236.566 74.8462 237.452 75.9199 237.456 78.1282V81.5498C237.452 81.6521 237.409 81.7493 237.337 81.8217C237.265 81.8941 237.167 81.9365 237.065 81.9403H236.239C236.135 81.939 236.037 81.8974 235.964 81.8244C235.891 81.7514 235.85 81.6529 235.849 81.5498V78.0693C235.849 76.9802 235.392 76.3803 234.568 76.3803C234.223 76.3759 233.883 76.4597 233.579 76.6237C233.276 76.7877 233.019 77.0266 232.834 77.3176V81.5504C232.834 81.8129 232.682 81.941 232.369 81.941H231.617C231.514 81.9396 231.415 81.8981 231.342 81.8251C231.269 81.7521 231.228 81.6535 231.227 81.5504V75.3859C231.23 75.2836 231.273 75.1864 231.345 75.114C231.418 75.0415 231.515 74.9992 231.617 74.9954H231.971C232.05 74.9891 232.128 75.0116 232.192 75.0587C232.255 75.1058 232.299 75.1743 232.316 75.2515L232.484 75.731ZM244.623 74.9935H244.225C244.006 74.9935 243.951 75.1555 243.913 75.2701L243.773 75.6101C243.177 75.1087 242.421 74.8375 241.642 74.8456C241.188 74.8639 240.742 74.9726 240.33 75.1653C239.917 75.3579 239.548 75.6306 239.242 75.9676C238.937 76.3045 238.701 76.6989 238.55 77.1278C238.398 77.5567 238.333 78.0115 238.359 78.4656C238.337 78.9257 238.406 79.3857 238.563 79.8186C238.721 80.2516 238.963 80.6489 239.275 80.9873C239.588 81.3257 239.964 81.5984 240.384 81.7895C240.803 81.9806 241.256 82.0863 241.716 82.1004C242.302 82.0871 242.876 81.9365 243.392 81.6605V81.9166C243.392 83.3732 242.505 83.6793 241.76 83.6793C241.186 83.657 240.637 83.4374 240.206 83.0576C240.163 83.0226 240.112 82.9977 240.058 82.9845C240.004 82.9713 239.947 82.9703 239.893 82.9814C239.84 82.995 239.791 83.02 239.749 83.0548C239.707 83.0896 239.674 83.1331 239.651 83.1824L239.297 83.8304C239.257 83.9057 239.244 83.9923 239.259 84.0762C239.274 84.1601 239.318 84.2364 239.382 84.2927C240.056 84.8583 240.909 85.168 241.789 85.1673C242.223 85.2007 242.66 85.1393 243.068 84.9873C243.476 84.8353 243.846 84.5965 244.153 84.2872C244.459 83.9779 244.695 83.6057 244.844 83.1962C244.992 82.7868 245.05 82.35 245.013 81.916V75.3853C245.011 75.2824 244.969 75.1842 244.896 75.1112C244.824 75.0382 244.726 74.9961 244.623 74.9935ZM241.893 80.5682C241.362 80.5367 240.863 80.2996 240.504 79.9073C240.144 79.515 239.951 78.9982 239.966 78.4663C239.913 78.0429 240.008 77.6142 240.234 77.2523C240.46 76.8904 240.804 76.6174 241.207 76.4792C241.611 76.341 242.05 76.346 242.45 76.4935C242.851 76.641 243.188 76.9218 243.406 77.2888V80.056C242.964 80.374 242.437 80.5524 241.893 80.5682Z" fill="#454B57"/>
  </g>
  <defs>
    <filter id="filter0_di" x="93.9998" y="47" width="388" height="326" filterUnits="userSpaceOnUse" color-interpolation-filters="sRGB">
      <feFlood flood-opacity="0" result="BackgroundImageFix"/>
      <feColorMatrix in="SourceAlpha" type="matrix" values="0 0 0 0 0 0 0 0 0 0 0 0 0 0 0 0 0 0 127 0"/>
      <feOffset dx="-18" dy="14"/>
      <feGaussianBlur stdDeviation="10"/>
      <feColorMatrix type="matrix" values="0 0 0 0 0 0 0 0 0 0 0 0 0 0 0 0 0 0 0.1 0"/>
      <feBlend mode="normal" in2="BackgroundImageFix" result="effect1_dropShadow"/>
      <feBlend mode="normal" in="SourceGraphic" in2="effect1_dropShadow" result="shape"/>
      <feColorMatrix in="SourceAlpha" type="matrix" values="0 0 0 0 0 0 0 0 0 0 0 0 0 0 0 0 0 0 127 0" result="hardAlpha"/>
      <feOffset/>
      <feGaussianBlur stdDeviation="10"/>
      <feComposite in2="hardAlpha" operator="arithmetic" k2="-1" k3="1"/>
      <feColorMatrix type="matrix" values="0 0 0 0 1 0 0 0 0 1 0 0 0 0 1 0 0 0 1 0"/>
      <feBlend mode="normal" in2="shape" result="effect2_innerShadow"/>
    </filter>
    <filter id="filter1_d" x="153" y="100" width="125" height="95" filterUnits="userSpaceOnUse" color-interpolation-filters="sRGB">
      <feFlood flood-opacity="0" result="BackgroundImageFix"/>
      <feColorMatrix in="SourceAlpha" type="matrix" values="0 0 0 0 0 0 0 0 0 0 0 0 0 0 0 0 0 0 127 0"/>
      <feOffset dy="15"/>
      <feGaussianBlur stdDeviation="7.5"/>
      <feColorMatrix type="matrix" values="0 0 0 0 0.211765 0 0 0 0 0.533333 0 0 0 0 0.968627 0 0 0 0.3 0"/>
      <feBlend mode="normal" in2="BackgroundImageFix" result="effect1_dropShadow"/>
      <feBlend mode="normal" in="SourceGraphic" in2="effect1_dropShadow" result="shape"/>
    </filter>
    <filter id="filter2_i" x="416.414" y="196.904" width="16.2337" height="11.1447" filterUnits="userSpaceOnUse" color-interpolation-filters="sRGB">
      <feFlood flood-opacity="0" result="BackgroundImageFix"/>
      <feBlend mode="normal" in="SourceGraphic" in2="BackgroundImageFix" result="shape"/>
      <feColorMatrix in="SourceAlpha" type="matrix" values="0 0 0 0 0 0 0 0 0 0 0 0 0 0 0 0 0 0 127 0" result="hardAlpha"/>
      <feOffset dy="4"/>
      <feGaussianBlur stdDeviation="2"/>
      <feComposite in2="hardAlpha" operator="arithmetic" k2="-1" k3="1"/>
      <feColorMatrix type="matrix" values="0 0 0 0 0 0 0 0 0 0 0 0 0 0 0 0 0 0 0.05 0"/>
      <feBlend mode="normal" in2="shape" result="effect1_innerShadow"/>
    </filter>
    <filter id="filter3_i" x="479" y="152.904" width="16.2337" height="11.1447" filterUnits="userSpaceOnUse" color-interpolation-filters="sRGB">
      <feFlood flood-opacity="0" result="BackgroundImageFix"/>
      <feBlend mode="normal" in="SourceGraphic" in2="BackgroundImageFix" result="shape"/>
      <feColorMatrix in="SourceAlpha" type="matrix" values="0 0 0 0 0 0 0 0 0 0 0 0 0 0 0 0 0 0 127 0" result="hardAlpha"/>
      <feOffset dy="4"/>
      <feGaussianBlur stdDeviation="2"/>
      <feComposite in2="hardAlpha" operator="arithmetic" k2="-1" k3="1"/>
      <feColorMatrix type="matrix" values="0 0 0 0 0 0 0 0 0 0 0 0 0 0 0 0 0 0 0.05 0"/>
      <feBlend mode="normal" in2="shape" result="effect1_innerShadow"/>
    </filter>
    <filter id="filter4_i" x="415" y="110.904" width="16.2337" height="11.1447" filterUnits="userSpaceOnUse" color-interpolation-filters="sRGB">
      <feFlood flood-opacity="0" result="BackgroundImageFix"/>
      <feBlend mode="normal" in="SourceGraphic" in2="BackgroundImageFix" result="shape"/>
      <feColorMatrix in="SourceAlpha" type="matrix" values="0 0 0 0 0 0 0 0 0 0 0 0 0 0 0 0 0 0 127 0" result="hardAlpha"/>
      <feOffset dy="4"/>
      <feGaussianBlur stdDeviation="2"/>
      <feComposite in2="hardAlpha" operator="arithmetic" k2="-1" k3="1"/>
      <feColorMatrix type="matrix" values="0 0 0 0 0 0 0 0 0 0 0 0 0 0 0 0 0 0 0.05 0"/>
      <feBlend mode="normal" in2="shape" result="effect1_innerShadow"/>
    </filter>
    <filter id="filter5_i" x="416.414" y="232.904" width="16.2337" height="11.1447" filterUnits="userSpaceOnUse" color-interpolation-filters="sRGB">
      <feFlood flood-opacity="0" result="BackgroundImageFix"/>
      <feBlend mode="normal" in="SourceGraphic" in2="BackgroundImageFix" result="shape"/>
      <feColorMatrix in="SourceAlpha" type="matrix" values="0 0 0 0 0 0 0 0 0 0 0 0 0 0 0 0 0 0 127 0" result="hardAlpha"/>
      <feOffset dy="4"/>
      <feGaussianBlur stdDeviation="2"/>
      <feComposite in2="hardAlpha" operator="arithmetic" k2="-1" k3="1"/>
      <feColorMatrix type="matrix" values="0 0 0 0 0 0 0 0 0 0 0 0 0 0 0 0 0 0 0.05 0"/>
      <feBlend mode="normal" in2="shape" result="effect1_innerShadow"/>
    </filter>
    <filter id="filter6_i" x="309" y="277" width="33" height="21" filterUnits="userSpaceOnUse" color-interpolation-filters="sRGB">
      <feFlood flood-opacity="0" result="BackgroundImageFix"/>
      <feBlend mode="normal" in="SourceGraphic" in2="BackgroundImageFix" result="shape"/>
      <feColorMatrix in="SourceAlpha" type="matrix" values="0 0 0 0 0 0 0 0 0 0 0 0 0 0 0 0 0 0 127 0" result="hardAlpha"/>
      <feOffset dy="3"/>
      <feGaussianBlur stdDeviation="1.5"/>
      <feComposite in2="hardAlpha" operator="arithmetic" k2="-1" k3="1"/>
      <feColorMatrix type="matrix" values="0 0 0 0 0 0 0 0 0 0 0 0 0 0 0 0 0 0 0.05 0"/>
      <feBlend mode="normal" in2="shape" result="effect1_innerShadow"/>
    </filter>
    <linearGradient id="paint0_linear" x1="396.186" y1="33.326" x2="219.741" y2="423.594" gradientUnits="userSpaceOnUse">
      <stop stop-color="#3EAEFF" stop-opacity="0.8"/>
      <stop offset="0.833333" stop-color="#0093D5" stop-opacity="0"/>
    </linearGradient>
    <linearGradient id="paint1_linear" x1="55.9575" y1="153.669" x2="81.9998" y2="328" gradientUnits="userSpaceOnUse">
      <stop stop-color="#3B8CFA"/>
      <stop offset="1" stop-color="white" stop-opacity="0"/>
    </linearGradient>
    <linearGradient id="paint2_linear" x1="543.169" y1="158.782" x2="523.789" y2="327.128" gradientUnits="userSpaceOnUse">
      <stop stop-color="#3B8CFA"/>
      <stop offset="1" stop-color="white" stop-opacity="0"/>
    </linearGradient>
    <linearGradient id="paint3_linear" x1="132" y1="196" x2="407.914" y2="196" gradientUnits="userSpaceOnUse">
      <stop stop-color="#FEFEFF"/>
      <stop offset="1" stop-color="#ECF2FC" stop-opacity="0.9"/>
    </linearGradient>
    <linearGradient id="paint4_linear" x1="216" y1="100" x2="216" y2="165" gradientUnits="userSpaceOnUse">
      <stop stop-color="#42D2FF" stop-opacity="0.9"/>
      <stop offset="1" stop-color="#27B2ED"/>
    </linearGradient>
    <linearGradient id="paint5_linear" x1="411.71" y1="288.27" x2="522.407" y2="288.27" gradientUnits="userSpaceOnUse">
      <stop stop-color="#42A5F5"/>
      <stop offset="1" stop-color="#66BB6A"/>
    </linearGradient>
    <linearGradient id="paint6_linear" x1="442.157" y1="331.556" x2="491.835" y2="381.359" gradientUnits="userSpaceOnUse">
      <stop stop-color="#42A5F5"/>
      <stop offset="1" stop-color="#66BB6A"/>
    </linearGradient>
    <linearGradient id="paint7_linear" x1="208" y1="418" x2="208" y2="469" gradientUnits="userSpaceOnUse">
      <stop stop-color="#EAF4FB"/>
      <stop offset="1" stop-color="#B0BBC2"/>
    </linearGradient>
    <linearGradient id="paint8_linear" x1="98.9061" y1="297.333" x2="319.692" y2="297.333" gradientUnits="userSpaceOnUse">
      <stop stop-color="#42A5F5"/>
      <stop offset="1" stop-color="#66BB6A"/>
    </linearGradient>
    <clipPath id="clip0">
      <rect width="598.255" height="458.752" fill="white" transform="translate(0.712646 0.247742)"/>
    </clipPath>
    <clipPath id="clip1">
      <rect width="130" height="217" fill="white" transform="translate(402 242)"/>
    </clipPath>
    <clipPath id="clip2">
      <rect width="306" height="187" fill="white" transform="translate(54.9998 261)"/>
    </clipPath>
    <clipPath id="clip3">
      <rect width="26" height="36" fill="white" transform="translate(508 164)"/>
    </clipPath>
  </defs>
</svg>
